<svg xmlns="http://www.w3.org/2000/svg" viewBox="0 0 170 170">
    <g fill="none"  stroke-width="2">
        <path d="M3.96 169.72q-.97-1.13-2.36-1.73M68.33 32.56q-1.35.54-2.43 1.32-.61.44.12.3l14.59-2.88a4.01 4-31.4 0 1 3.24.78l10.59 8.36q.45.35.9 0l11.2-8.58q1.24-.95 2.67-.31l21.06 9.39q.13.06.14.04l.12-.23q.03-.05-.02-.09-10.3-6.96-21.79-14.66-.83-.55-1.71-.08L96 31.8a1.95 1.94-42.7 0 1-1.95-.07l-9.38-5.99q-.5-.32-1.04-.07c-5.08 2.35-10.16 4.82-15.3 6.89M35.8 60.08q-4.56 1.4-8.53 2.98-1.7.67.13.69 3.12.04 6.12-.1c1.25-.06 2.51.01 3.39 1.04q3.01 3.47 6.2 6.21.38.33.85.16 5.14-1.85 10.11-4.58.9-.5 1.87-.14l8.66 3.22q1.68.62.36-.59-4.1-3.76-8.69-7.36a1.78 1.74 54.3 0 0-1.66-.29l-9.25 3.15q-.53.18-1.03-.08-3.8-2.07-7.49-4.66a.25.15 58.3 0 0-.08-.04q-.36-.18-.55.09-.15.22-.41.3M126.48 77.31q-1.67-1.41-4.02-1.79-.63-.1-1.14.3l-2.68 2.11a.88.87-69.7 0 1-.41.19q-.63.09-1.03.55-.45.51.21.32 1.85-.55 3.66-1.38c1.98-.91 3.95.91 5.26 2.15q.47.44.99.07l3.21-2.29q.52-.36 1.15-.33l3.31.19q.72.04.07-.27-2.01-.92-4.34-1.56-.46-.12-.9.06-1.39.57-2.44 1.64-.43.44-.9.04" vector-effect="non-scaling-stroke"/></g>
    <path fill="currentColor" d="M5.13 0h160.11q3.91.93 4.76 4.37V166q-1.7 2.68-4.37 4H4.22q-.06-.22-.26-.28-.97-1.13-2.36-1.73L0 165.68V5.01Q1.17 1.13 5.13 0Zm63.2 32.56q-1.35.54-2.43 1.32-.61.44.12.3l14.59-2.88a4.01 4-31.4 0 1 3.24.78l10.59 8.36q.45.35.9 0l11.2-8.58q1.24-.95 2.67-.31l21.06 9.39q.13.06.14.04l.12-.23q.03-.05-.02-.09-10.3-6.96-21.79-14.66-.83-.55-1.71-.08L96 31.8a1.95 1.94-42.7 0 1-1.95-.07l-9.38-5.99q-.5-.32-1.04-.07c-5.08 2.35-10.16 4.82-15.3 6.89ZM35.8 60.08q-4.56 1.4-8.53 2.98-1.7.67.13.69 3.12.04 6.12-.1c1.25-.06 2.51.01 3.39 1.04q3.01 3.47 6.2 6.21.38.33.85.16 5.14-1.85 10.11-4.58.9-.5 1.87-.14l8.66 3.22q1.68.62.36-.59-4.1-3.76-8.69-7.36a1.78 1.74 54.3 0 0-1.66-.29l-9.25 3.15q-.53.18-1.03-.08-3.8-2.07-7.49-4.66a.25.15 58.3 0 0-.08-.04q-.36-.18-.55.09-.15.22-.41.3Zm90.68 17.23q-1.67-1.41-4.02-1.79-.63-.1-1.14.3l-2.68 2.11a.88.87-69.7 0 1-.41.19q-.63.09-1.03.55-.45.51.21.32 1.85-.55 3.66-1.38c1.98-.91 3.95.91 5.26 2.15q.47.44.99.07l3.21-2.29q.52-.36 1.15-.33l3.31.19q.72.04.07-.27-2.01-.92-4.34-1.56-.46-.12-.9.06-1.39.57-2.44 1.64-.43.44-.9.04Z"/>
    <path fill="transparent" d="M68.33 32.56c5.14-2.07 10.22-4.54 15.3-6.89q.54-.25 1.04.07l9.38 5.99a1.95 1.94-42.7 0 0 1.95.07l11.01-5.88q.88-.47 1.71.08 11.49 7.7 21.79 14.66.05.04.02.09l-.12.23q-.01.02-.14-.04l-21.06-9.39q-1.43-.64-2.67.31l-11.2 8.58q-.45.35-.9 0l-10.59-8.36a4.01 4-31.4 0 0-3.24-.78l-14.59 2.88q-.73.14-.12-.3 1.08-.78 2.43-1.32ZM36.21 59.78q.19-.27.55-.09a.25.15 58.3 0 1 .08.04q3.69 2.59 7.49 4.66.5.26 1.03.08l9.25-3.15a1.78 1.74 54.3 0 1 1.66.29q4.59 3.6 8.69 7.36 1.32 1.21-.36.59l-8.66-3.22q-.97-.36-1.87.14-4.97 2.73-10.11 4.58-.47.17-.85-.16-3.19-2.74-6.2-6.21c-.88-1.03-2.14-1.1-3.39-1.04q-3 .14-6.12.1-1.83-.02-.13-.69 3.97-1.58 8.53-2.98.26-.08.41-.3ZM127.38 77.27q1.05-1.07 2.44-1.64.44-.18.9-.06 2.33.64 4.34 1.56.65.31-.07.27l-3.31-.19q-.63-.03-1.15.33l-3.21 2.29q-.52.37-.99-.07c-1.31-1.24-3.28-3.06-5.26-2.15q-1.81.83-3.66 1.38-.66.19-.21-.32.4-.46 1.03-.55a.88.87-69.7 0 0 .41-.19l2.68-2.11q.51-.4 1.14-.3 2.35.38 4.02 1.79.47.4.9-.04ZM1.6 167.99q1.39.6 2.36 1.73-1.82.05-2.36-1.73Z"/>
</svg>
