<svg  aria-hidden="true" focusable="false" role="img"  xmlns="http://www.w3.org/2000/svg" xml:space="preserve" baseProfile="tiny" overflow="visible" version="1.2" viewBox="0 0 40 40"><path fill="currentColor" d="M20 18.2c-1.6-3-6-8.9-10-11.7-3.9-2.7-5.4-2.3-6.4-1.8-1.1.5-1.3 2.2-1.3 3.2s.5 8.3 1 9.5c1.1 4 5.4 5.4 9.3 5-5.8.8-10.9 2.9-4.2 10.4 7.4 7.6 10.1-1.7 11.5-6.4 1.4 4.7 3 13.6 11.4 6.4 6.2-6.4 1.7-9.6-4-10.4l-.7-.1h.7c3.9.5 8.1-.9 9.3-4.9.5-3.1.8-6.3 1-9.5 0-1-.3-2.7-1.4-3.2-1-.5-2.4-1-6.3 1.8A40.1 40.1 0 0 0 20 18.2z"/></svg>
