<svg aria-hidden="true" focusable="false" role="img"  xmlns="http://www.w3.org/2000/svg" xml:space="preserve" version="1.2" viewBox="0 0 492 492">
    <path fill="currentColor" d="M246 137.9c-59.3 0-107.1 48.3-107.1 108.1S186.8 354.1 246 354.1 353.2 305.9 353.2 246 305.3 137.9 246 137.9zm0 178.4c-38.3 0-69.6-31.5-69.6-70.3s31.2-70.3 69.6-70.3 69.6 31.5 69.6 70.3-31.2 70.3-69.6 70.3zm136.5-182.9a25 25 0 1 1-50 0c0-13.9 11.2-25.2 25-25.2s25 11.3 25 25.2zm71 25.6c-1.6-33.8-9.2-63.7-33.7-88.4-24.4-24.7-54.1-32.4-87.5-34.1-34.5-2-137.9-2-172.4 0-33.4 1.6-63 9.3-87.5 34s-32.1 54.6-33.7 88.4c-2 34.8-2 139.2 0 174 1.6 33.8 9.2 63.7 33.7 88.4 24.5 24.7 54.1 32.4 87.5 34.1 34.5 2 137.9 2 172.4 0 33.5-1.6 63.1-9.3 87.5-34.1 24.4-24.7 32.1-54.6 33.7-88.4 1.9-34.8 1.9-139 0-173.9zm-44.6 211.3a70.8 70.8 0 0 1-39.7 40.1c-27.5 11-92.8 8.5-123.2 8.5s-95.7 2.4-123.2-8.5a70.6 70.6 0 0 1-39.7-40.1c-10.9-27.8-8.4-93.6-8.4-124.3s-2.4-96.7 8.4-124.3a70.8 70.8 0 0 1 39.7-40.1c27.5-11 92.8-8.5 123.2-8.5s95.7-2.4 123.2 8.5a70.6 70.6 0 0 1 39.7 40.1c10.9 27.8 8.4 93.6 8.4 124.3s2.5 96.7-8.4 124.3z"/></svg>
