<svg xmlns="http://www.w3.org/2000/svg" xml:space="preserve" viewBox="0 0 24 24">
  <path fill="currentColor" d="M21.33 8.57c0-4.34-2.85-5.61-2.85-5.61-1.43-.66-3.89-.94-6.45-.96h-.06c-2.56.02-5.02.3-6.45.96 0 0-2.84 1.27-2.84 5.6 0 1-.02 2.19 0 3.45.11 4.24.79 8.42 4.71 9.46 1.8.48 3.36.58 4.61.51a9.15 9.15 0 0 0 3.54-.8l-.07-1.66s-1.62.52-3.44.45c-1.8-.06-3.71-.19-4-2.4a4.52 4.52 0 0 1-.04-.63s1.77.44 4.01.54c1.37.06 2.66-.08 3.97-.24 2.5-.3 4.68-1.84 4.96-3.25.43-2.22.4-5.42.4-5.42zm-3.36 5.59H15.9v-5.1c0-1.08-.45-1.62-1.35-1.62-1 0-1.5.64-1.5 1.92v2.8h-2.07v-2.8c0-1.28-.5-1.92-1.5-1.92-.91 0-1.36.54-1.36 1.62v5.1H6.03V8.9c0-1.07.27-1.92.82-2.55.57-.64 1.3-.96 2.23-.96 1.06 0 1.87.4 2.4 1.23l.52.87.52-.87a2.68 2.68 0 0 1 2.4-1.23c.92 0 1.67.32 2.23.96.55.63.82 1.48.82 2.55v5.26z"/>
</svg>
