<svg xmlns="http://www.w3.org/2000/svg" aria-hidden="true" focusable="false" role="img"  viewBox="0 0 576 576">
    <path fill="currentColor" d="M553.7 156.1a68.6 68.6 0 0 0-48.3-48.6C462.8 96 292 96 292 96s-170.8 0-213.4 11.5a68.6 68.6 0 0 0-48.3 48.6C18.9 199 18.9 288.4 18.9 288.4s0 89.4 11.4 132.3a67.7 67.7 0 0 0 48.3 47.8C121.2 480 292 480 292 480s170.8 0 213.4-11.5a67.7 67.7 0 0 0 48.3-47.8c11.4-42.9 11.4-132.3 11.4-132.3s0-89.5-11.4-132.3zM236.1 369.6V207.2l142.7 81.2-142.7 81.2z"/></svg>
