<svg xmlns="http://www.w3.org/2000/svg" viewBox="0 0 200 200">
  <rect width="200" height="200" fill="#f55511" rx="20"/>

  <path fill="#fff" fill-rule="evenodd" d="M0 152.7v-37.3c7.2-5.1 15.3-10.1 24.6-15.4a451.3 451.3 0 0197.7-40.4l7.7-2.1a375.5 375.5 0 0141-8.2l9-1c3-.4 10-.9 15.6-1l4.4-.2v6.2a192.3 192.3 0 00-39.7 14.9l-8.7 4.4-.2 6a38 38 0 01-.6 6.3c-.4.7-3 .7-3.6 0a16.6 16.6 0 01-.5-4.8l-.2-4.3-1.8 1.3c-3 2-3.3 2.1-9 6.4l-5.6 4.2v10.5c0 11.5-.2 12.5-2.3 12.5-2.2 0-2.3-.3-2.4-10l-.1-9-6.5 6.4c-3.6 3.6-7.6 8-9 9.8L107 111v12.6c0 11.6 0 12.6-.7 13.2a2.1 2.1 0 01-3.2 0c-.6-.7-.7-2.2-.8-10.3V117l-3 4.5a147.5 147.5 0 00-14.6 26.7c-.2.5-.5.7-1.2.5a157.8 157.8 0 00-16.2-2.8 150.4 150.4 0 00-41.6 3c-11.3 2-14.1 2.5-18.9 3.2a96 96 0 01-6.9.5z"/>
</svg>
